<mxfile host="app.diagrams.net" modified="2024-05-17T12:36:24.524Z" agent="Mozilla/5.0 (Windows NT 10.0; Win64; x64) AppleWebKit/537.36 (KHTML, like Gecko) Chrome/124.0.0.0 Safari/537.36 Edg/124.0.0.0" version="23.1.1" etag="KVAfGAc_aTf8hbkOHW8v" type="github">
  <diagram name="Page-1" id="R0dfoaOO8zaMYVv3XBe5">
    <mxGraphModel>
      <root>
        <mxCell id="0" />
        <mxCell id="1" parent="0" />
      </root>
    </mxGraphModel>
  </diagram>
</mxfile>
